PathFileType	4	(X/Y/Z) abd_2kg_1.trc																										
DataRate	CameraRate	NumFrames	NumMarkers	Units	OrigDataRate	OrigDataStartFrame	OrigNumFrames																					
100	100	24	9	mm	100	622	829																					
Frame#	Time	gu			centelbow			EpL			centpxt8			centijc7			ij			ts			aa			ai		
		X1	Y1	Z1	X2	Y2	Z2	X3	Y3	Z3	X4	Y4	Z4	X5	Y5	Z5	X6	Y6	Z6	X7	Y7	Z7	X8	Y8	Z8	X9	Y9	Z9  
621	6.21	-102.238	1.934	161.491	-117.752	-237.86	218.435	-122.29	-226.381	248.219	-46.816	-153.158	-8.669	-46.816	31.938	-8.669	0	0	0	-127.48	28.664	33.097	-133.088	35.012	152.064	-136.389	-83.982	43.913
622	6.22	-102.526	1.984	160.874	-117.92	-238.066	216.758	-122.447	-226.722	246.595	-46.816	-153.158	-8.669	-46.816	31.938	-8.669	0	0	0	-127.425	28.785	32.917	-133.102	35.059	151.884	-136.27	-83.874	43.662
623	6.23	-102.783	2.181	160.584	-118.14	-238.124	215.373	-122.696	-226.916	245.257	-46.816	-153.158	-8.669	-46.816	31.938	-8.669	0	0	0	-127.563	28.938	32.68	-133.346	35.119	151.647	-136.334	-83.735	43.334
624	6.24	-102.747	2.29	160.711	-118.224	-238.267	214.351	-122.829	-227.198	244.279	-46.816	-153.158	-8.669	-46.816	31.938	-8.669	0	0	0	-127.727	29.068	32.532	-133.664	35.12	151.498	-136.429	-83.623	43.055
625	6.25	-102.356	2.237	161.025	-118.119	-238.559	213.492	-122.754	-227.63	243.467	-46.816	-153.158	-8.669	-46.816	31.938	-8.669	0	0	0	-127.676	29.206	32.535	-133.782	35.109	151.5	-136.328	-83.502	42.908
626	6.26	-101.887	2.015	161.281	-118.073	-239.004	212.588	-122.696	-228.21	242.614	-46.816	-153.158	-8.669	-46.816	31.938	-8.669	0	0	0	-127.412	29.319	32.667	-133.662	35.077	151.632	-136.042	-83.404	42.895
627	6.27	-101.596	1.643	161.375	-118.23	-239.579	211.57	-122.804	-228.916	241.65	-46.816	-153.158	-8.669	-46.816	31.938	-8.669	0	0	0	-127.136	29.329	32.815	-133.473	34.965	151.781	-135.763	-83.406	42.922
628	6.28	-101.457	1.256	161.267	-118.393	-240.159	210.426	-122.899	-229.621	240.561	-46.816	-153.158	-8.669	-46.816	31.938	-8.669	0	0	0	-126.968	29.279	32.874	-133.324	34.825	151.843	-135.592	-83.463	42.894
629	6.29	-101.345	1.079	160.976	-118.349	-240.523	209.183	-122.786	-230.106	239.37	-46.816	-153.158	-8.669	-46.816	31.938	-8.669	0	0	0	-126.91	29.262	32.859	-133.237	34.748	151.832	-135.524	-83.486	42.825
630	6.3	-101.234	1.197	160.689	-118.179	-240.583	208.013	-122.556	-230.28	238.247	-46.816	-153.158	-8.669	-46.816	31.938	-8.669	0	0	0	-126.956	29.323	32.804	-133.228	34.768	151.782	-135.548	-83.429	42.735
631	6.31	-101.152	1.41	160.665	-118.118	-240.532	207.15	-122.447	-230.335	237.427	-46.816	-153.158	-8.669	-46.816	31.938	-8.669	0	0	0	-127.033	29.468	32.723	-133.244	34.87	151.706	-135.592	-83.291	42.62
632	6.32	-101.082	1.497	160.966	-118.243	-240.587	206.631	-122.524	-230.491	236.949	-46.816	-153.158	-8.669	-46.816	31.938	-8.669	0	0	0	-127.015	29.621	32.659	-133.173	34.976	151.647	-135.541	-83.143	42.517
633	6.33	-100.975	1.373	161.371	-118.462	-240.842	206.212	-122.672	-230.846	236.573	-46.816	-153.158	-8.669	-46.816	31.938	-8.669	0	0	0	-126.897	29.664	32.632	-133.013	34.98	151.624	-135.414	-83.104	42.457
634	6.34	-100.813	1.01	161.586	-118.689	-241.334	205.565	-122.785	-231.444	235.976	-46.816	-153.158	-8.669	-46.816	31.938	-8.669	0	0	0	-126.827	29.556	32.608	-132.894	34.851	151.603	-135.362	-83.212	42.415
635	6.35	-100.652	0.557	161.541	-118.888	-241.924	204.605	-122.834	-232.149	235.073	-46.816	-153.158	-8.669	-46.816	31.938	-8.669	0	0	0	-126.853	29.385	32.587	-132.865	34.679	151.586	-135.421	-83.38	42.394
636	6.36	-100.533	0.297	161.382	-119.006	-242.326	203.541	-122.796	-232.669	234.066	-46.816	-153.158	-8.669	-46.816	31.938	-8.669	0	0	0	-126.828	29.254	32.644	-132.795	34.551	151.645	-135.423	-83.509	42.457
637	6.37	-100.41	0.279	161.225	-118.996	-242.471	202.593	-122.655	-232.919	233.167	-46.816	-153.158	-8.669	-46.816	31.938	-8.669	0	0	0	-126.622	29.144	32.791	-132.564	34.436	151.793	-135.242	-83.618	42.599
638	6.38	-100.305	0.318	161.071	-118.972	-242.536	201.788	-122.533	-233.069	232.401	-46.816	-153.158	-8.669	-46.816	31.938	-8.669	0	0	0	-126.363	29.007	32.923	-132.275	34.281	151.927	-135.011	-83.753	42.714
639	6.39	-100.312	0.369	160.94	-119.089	-242.574	201.071	-122.58	-233.183	231.715	-46.816	-153.158	-8.669	-46.816	31.938	-8.669	0	0	0	-126.277	28.918	33.028	-132.138	34.162	152.036	-134.95	-83.843	42.793
640	6.4	-100.374	0.498	160.896	-119.292	-242.53	200.444	-122.734	-233.213	231.116	-46.816	-153.158	-8.669	-46.816	31.938	-8.669	0	0	0	-126.402	28.954	33.233	-132.202	34.156	152.246	-135.084	-83.809	42.962
641	6.41	-100.316	0.596	160.958	-119.427	-242.509	199.929	-122.833	-233.264	230.626	-46.816	-153.158	-8.669	-46.816	31.938	-8.669	0	0	0	-126.594	29.033	33.557	-132.337	34.186	152.575	-135.285	-83.733	43.242
642	6.42	-100.098	0.519	161.067	-119.486	-242.651	199.495	-122.859	-233.472	230.216	-46.816	-153.158	-8.669	-46.816	31.938	-8.669	0	0	0	-126.69	29.043	33.887	-132.379	34.14	152.91	-135.402	-83.726	43.523
643	6.43	-99.874	0.351	161.151	-119.601	-242.87	199.078	-122.934	-233.751	229.822	-46.816	-153.158	-8.669	-46.816	31.938	-8.669	0	0	0	-126.66	29.034	34.162	-132.287	34.067	153.19	-135.395	-83.739	43.74
644	6.44	-99.769	0.298	161.194	-119.836	-242.969	198.645	-123.12	-233.908	229.41	-46.816	-153.158	-8.669	-46.816	31.938	-8.669	0	0	0	-126.623	29.108	34.333	-132.179	34.078	153.367	-135.375	-83.667	43.855
